# xmcd
#
# Track frame offsets: 
#        150
#        28925
#        47581
#        67003
#        93018
#        117084
#        137715
#
# Disc length: 2027 seconds
#
# Revision: 2
# Processed by: cddbd v1.5.1PL2 Copyright (c) Steve Scherf et al.
# Submitted via: ExactAudioCopy v0.95a5
#
DISCID=5907e907
DTITLE=portico quartet - portico quartet
DYEAR=2006
DGENRE=Jazz
TTITLE0=gaia
TTITLE1=canal boats
TTITLE2=(somethings going down on) zavodovski island
TTITLE3=november
TTITLE4=prickly pear
TTITLE5=cittagázzé
TTITLE6=knee deep in the north sea
EXTD=YEAR: 2006
EXTT0=
EXTT1=
EXTT2=
EXTT3=
EXTT4=
EXTT5=
EXTT6=
PLAYORDER=
